<svg width="12" height="12" viewBox="0 0 12 12" fill="none" xmlns="http://www.w3.org/2000/svg">
<path d="M2.23188 8.66323C2.82971 8.39149 3.48188 8.21033 4.17029 8.08352C4.04348 7.50381 3.97101 6.90598 3.9529 6.29004H1C1.05435 7.23207 1.36232 8.08352 1.86957 8.80815L2.23188 8.66323Z" fill="black"/>
<path d="M2.46739 9.2427L2.25 9.33328C3.0471 10.2391 4.17029 10.8369 5.42029 10.9818L5.36594 10.9094C4.91304 10.2934 4.55072 9.53255 4.31522 8.69922C3.64493 8.80791 3.02899 8.98907 2.46739 9.2427Z" fill="black"/>
<path d="M4.29715 3.31884C4.51454 2.53985 4.84063 1.81522 5.2573 1.21739L5.42034 1C4.15222 1.14493 3.04715 1.76087 2.23193 2.66667L2.43121 2.75725C3.01092 3.01087 3.64498 3.21014 4.29715 3.31884Z" fill="black"/>
<path d="M4.15217 3.91658C3.44565 3.78977 2.79348 3.59049 2.17754 3.31876L1.85145 3.17383C1.36232 3.89847 1.05435 4.76803 1 5.69194H3.9529C3.97101 5.076 4.02536 4.47818 4.15217 3.91658Z" fill="black"/>
<path d="M9.69549 9.38767L9.56868 9.29709C8.95274 9.00724 8.26433 8.80796 7.53969 8.68115C7.30419 9.51449 6.94187 10.2754 6.48897 10.8913L6.4165 11C7.72085 10.8913 8.86216 10.2935 9.69549 9.38767Z" fill="black"/>
<path d="M9.58674 2.7029L9.73167 2.63043C8.89834 1.70652 7.73892 1.1087 6.43457 1L6.59761 1.23551C7.01428 1.83333 7.32225 2.55797 7.55776 3.33696C8.2824 3.21014 8.9708 2.99275 9.58674 2.7029Z" fill="black"/>
<path d="M4.55078 5.67399H7.28629C7.26817 5.09428 7.19571 4.53269 7.08701 4.00732C6.70658 4.04356 6.32614 4.07979 5.94571 4.07979C5.54716 4.07979 5.14861 4.06167 4.76817 4.00732C4.64136 4.53269 4.5689 5.1124 4.55078 5.67399Z" fill="black"/>
<path d="M10.1125 3.10156L9.85892 3.24649C9.20675 3.55446 8.46399 3.78997 7.70312 3.91678C7.82994 4.47837 7.88428 5.0762 7.9024 5.67403H11.0183C10.964 4.732 10.6379 3.84432 10.1125 3.10156Z" fill="black"/>
<path d="M9.8766 8.77187L10.094 8.9168C10.6375 8.17405 10.9636 7.26825 11.0179 6.30811H7.90196C7.88385 6.92405 7.81138 7.52187 7.68457 8.10158C8.46356 8.2284 9.18819 8.4639 9.84037 8.77187H9.8766Z" fill="black"/>
<path d="M5.92758 1.34424L5.74642 1.57975C5.3841 2.08699 5.11236 2.72105 4.91309 3.40946C5.25729 3.44569 5.60149 3.4638 5.94569 3.4638C6.2899 3.4638 6.61598 3.44569 6.94207 3.40946C6.7428 2.72105 6.45294 2.08699 6.09062 1.56163L5.92758 1.34424Z" fill="black"/>
<path d="M5.92753 10.6375L5.99999 10.547C6.39854 10.0035 6.70651 9.33318 6.92391 8.60855C6.59782 8.57232 6.27173 8.5542 5.94564 8.5542C5.60144 8.5542 5.25724 8.57232 4.93115 8.60855C5.14854 9.33318 5.45651 10.0035 5.85507 10.5288L5.92753 10.6375Z" fill="black"/>
<path d="M5.94571 7.93854C6.32614 7.93854 6.70658 7.95666 7.08701 8.011C7.21382 7.46753 7.26817 6.88782 7.28629 6.30811H4.55078C4.5689 6.90593 4.64136 7.46753 4.75006 8.011C5.14861 7.95666 5.54716 7.93854 5.94571 7.93854Z" fill="black"/>
</svg>
