<svg width="12" height="12" viewBox="0 0 12 12" fill="none" xmlns="http://www.w3.org/2000/svg">
<g clip-path="url(#clip0)">
<path d="M12.0181 2.1545C11.5766 2.3505 11.1021 2.4825 10.6041 2.542C11.1126 2.2375 11.5031 1.755 11.6866 1.18C11.2111 1.462 10.6841 1.667 10.1231 1.7775C9.67457 1.299 9.03407 1 8.32607 1C6.73657 1 5.56857 2.483 5.92757 4.0225C3.88207 3.92 2.06807 2.94 0.853566 1.4505C0.208566 2.557 0.519066 4.0045 1.61507 4.7375C1.21207 4.7245 0.832066 4.614 0.500566 4.4295C0.473566 5.57 1.29107 6.637 2.47507 6.8745C2.12857 6.9685 1.74907 6.9905 1.36307 6.9165C1.67607 7.8945 2.58507 8.606 3.66307 8.626C2.62807 9.4375 1.32407 9.8 0.0180664 9.646C1.10757 10.3445 2.40207 10.752 3.79207 10.752C8.36307 10.752 10.9456 6.8915 10.7896 3.429C11.2706 3.0815 11.6881 2.648 12.0181 2.1545V2.1545Z" fill="black"/>
</g>
<defs>
<clipPath id="clip0">
<rect width="12" height="12" fill="white"/>
</clipPath>
</defs>
</svg>
