<svg width="654" height="722" viewBox="0 0 654 722" fill="none" xmlns="http://www.w3.org/2000/svg">
<path d="M598.512 389.509C582.056 379.985 563.442 374.851 544.446 374.593C526.238 374.593 508.031 374.592 489.824 373.198H488.989C485.819 373.198 482.779 371.935 480.538 369.687C478.296 367.438 477.037 364.388 477.037 361.209C477.037 358.029 478.296 354.98 480.538 352.732C482.779 350.484 485.819 349.22 488.989 349.22H489.824C508.031 348.383 526.238 348.105 544.446 347.826C563.824 347.54 582.791 342.179 599.467 332.273C616.143 322.368 629.948 308.262 639.513 291.356C649.078 274.449 654.072 255.329 653.999 235.89C653.926 216.451 648.789 197.368 639.096 180.535C629.378 163.763 615.466 149.823 598.735 140.094C582.003 130.364 563.03 125.18 543.691 125.053C524.351 124.927 505.313 129.862 488.457 139.372C471.6 148.882 457.508 162.638 447.571 179.28C438.259 195.034 428.947 210.647 419.079 225.982C417.494 228.737 414.883 230.747 411.82 231.571C408.757 232.394 405.494 231.963 402.748 230.373C400.002 228.783 397.998 226.165 397.176 223.093C396.355 220.021 396.785 216.748 398.37 213.993C406.709 197.822 415.465 181.789 424.36 165.896C433.818 148.906 438.679 129.73 438.461 110.272C438.243 90.8139 432.952 71.7518 423.116 54.9794C413.28 38.207 399.24 24.3078 382.39 14.6627C365.541 5.01757 346.469 -0.0363472 327.069 0.000196783C307.669 -0.0363472 288.597 5.01757 271.747 14.6627C254.898 24.3078 240.858 38.207 231.021 54.9794C221.185 71.7518 215.895 90.8139 215.677 110.272C215.459 129.73 220.32 148.906 229.777 165.896C238.812 181.789 247.568 197.822 255.907 213.993C257.087 216.73 257.222 219.806 256.284 222.635C255.346 225.464 253.402 227.848 250.824 229.331C248.245 230.814 245.212 231.292 242.304 230.674C239.396 230.056 236.817 228.386 235.059 225.982C225.191 210.647 215.74 195.034 206.428 179.28C196.775 162.84 183.029 149.196 166.538 139.687C141.019 124.98 110.729 121.021 82.3045 128.678C53.8805 136.335 29.6422 154.983 14.9026 180.535C0.283994 206.118 -3.63835 236.468 3.99325 264.944C11.6248 293.421 30.1891 317.707 55.6259 332.491C72.0471 342.097 90.6833 347.238 109.692 347.407C127.9 347.407 146.107 347.407 164.314 348.801H165.009C168.179 348.801 171.22 350.065 173.461 352.313C175.703 354.562 176.962 357.61 176.962 360.79C176.962 363.97 175.703 367.02 173.461 369.268C171.22 371.517 168.179 372.781 165.009 372.781H164.314C146.107 373.617 127.9 374.035 109.692 374.174C90.3021 374.436 71.3171 379.78 54.6223 389.676C37.9275 399.571 24.1034 413.674 14.5217 430.585C4.93994 447.495 -0.0661824 466.626 0.000660703 486.076C0.0675038 505.527 5.20483 524.622 14.9026 541.466C29.6653 566.994 53.9138 585.612 82.3359 593.242C110.758 600.872 141.036 596.891 166.538 582.172C183.029 572.663 196.775 559.021 206.428 542.58C215.74 526.966 225.191 511.353 235.059 495.878C236.817 493.474 239.396 491.804 242.304 491.187C245.212 490.569 248.245 491.046 250.824 492.529C253.402 494.012 255.346 496.397 256.284 499.226C257.222 502.055 257.087 505.131 255.907 507.867C247.568 524.178 238.812 540.21 229.777 556.103C220.541 572.718 215.752 591.449 215.879 610.473C215.879 640.051 227.593 668.419 248.445 689.334C269.298 710.25 297.579 722 327.069 722C356.558 722 384.84 710.25 405.692 689.334C426.544 668.419 438.259 640.051 438.259 610.473C438.385 591.449 433.597 572.718 424.36 556.103C415.465 540.21 406.709 524.178 398.37 507.867C396.785 505.113 396.355 501.84 397.176 498.768C397.998 495.696 400.002 493.076 402.748 491.486C405.494 489.896 408.757 489.466 411.82 490.29C414.883 491.113 417.494 493.124 419.079 495.878C428.947 511.353 438.259 526.966 447.571 542.58C457.496 559.23 471.578 572.996 488.427 582.517C505.277 592.039 524.312 596.988 543.651 596.875C562.991 596.763 581.967 591.593 598.705 581.876C615.444 572.158 629.366 558.23 639.096 541.466C653.727 515.899 657.67 485.561 650.065 457.087C642.46 428.612 623.925 404.316 598.512 389.509Z" fill="#FF6B00"/>
</svg>
